<?xml version="1.0" standalone="no"?>
<!DOCTYPE svg PUBLIC "-//W3C//DTD SVG 20010904//EN"
 "http://www.w3.org/TR/2001/REC-SVG-20010904/DTD/svg10.dtd">
<svg version="1.0" xmlns="http://www.w3.org/2000/svg"
 width="400.000000pt" height="400.000000pt" viewBox="0 0 400.000000 400.000000"
 preserveAspectRatio="xMidYMid meet">

<g transform="translate(0.000000,400.000000) scale(0.100000,-0.100000)"
fill="#000000" stroke="none">
<path d="M1675 3989 c-44 -4 -102 -13 -129 -19 -142 -32 -434 -168 -544 -254
-141 -110 -318 -325 -435 -527 -30 -53 -66 -114 -79 -135 -53 -87 -132 -277
-171 -414 -49 -169 -58 -419 -22 -595 8 -41 36 -113 67 -174 87 -174 206 -276
388 -333 64 -20 96 -23 220 -23 115 0 154 4 188 18 23 9 47 17 53 17 14 0 7
-38 -28 -150 -28 -87 -96 -199 -205 -336 -32 -41 -47 -70 -46 -85 3 -27 17
-27 -156 -2 -98 14 -133 15 -206 6 -108 -14 -152 -33 -254 -109 -70 -52 -76
-59 -56 -64 20 -5 13 -11 -46 -37 -119 -54 -144 -85 -40 -51 56 18 94 18 45
-1 -63 -23 -162 -75 -189 -98 -19 -15 -30 -34 -30 -50 0 -13 3 -23 8 -21 4 2
38 18 76 36 44 20 118 42 200 58 177 35 238 31 416 -31 198 -68 230 -76 285
-71 28 2 95 7 150 10 116 7 157 14 150 26 -2 4 -31 10 -62 13 -114 10 -381 78
-558 141 -57 21 -119 36 -145 36 -33 0 -41 3 -33 11 9 9 35 9 105 0 72 -9 111
-21 173 -50 49 -24 109 -44 155 -51 41 -7 95 -19 120 -26 50 -16 170 -36 240
-40 25 -1 74 -10 110 -20 36 -9 101 -17 145 -18 69 -1 88 3 138 27 63 32 95
70 127 155 l19 50 -52 -20 c-43 -17 -68 -19 -147 -15 -96 5 -126 12 -315 82
-126 46 -166 59 -238 79 -32 9 -60 23 -63 31 -8 19 27 76 117 193 101 130 153
223 179 323 11 45 25 90 31 100 5 10 8 22 7 26 -2 5 31 42 72 83 145 144 197
255 207 435 5 95 4 104 -21 153 -17 33 -42 63 -69 82 -23 16 -55 39 -71 51
l-29 23 6 296 c9 436 26 583 82 705 13 28 26 65 30 84 l7 33 -55 -52 c-118
-112 -144 -228 -159 -716 l-11 -352 -67 -4 c-176 -13 -325 -170 -331 -350 -2
-83 1 -98 13 -63 6 17 27 55 46 85 75 121 127 153 244 152 42 0 82 -3 88 -7
12 -7 11 -27 -22 -320 -13 -118 -26 -195 -34 -204 -10 -11 -49 -16 -148 -19
l-135 -5 -110 47 c-195 81 -289 149 -365 265 -164 246 -158 595 14 993 145
333 495 639 873 763 109 35 276 65 367 65 146 0 363 -64 459 -135 48 -35 120
-105 108 -105 -4 0 12 -36 34 -80 62 -120 80 -201 86 -369 9 -235 -16 -350
-123 -582 -66 -142 -165 -291 -265 -401 -61 -68 -82 -84 -173 -128 -65 -32
-115 -50 -138 -50 -54 0 -68 -9 -68 -41 0 -15 -7 -34 -15 -41 -38 -32 -45 -41
-45 -57 0 -10 7 -24 15 -31 12 -10 31 -5 102 29 48 23 102 57 120 76 18 19 78
68 133 109 56 41 121 99 145 128 76 93 214 309 267 418 139 288 127 251 180
585 20 124 -19 351 -82 478 -43 88 -98 148 -209 226 -130 93 -143 98 -278 121
-122 21 -202 23 -338 9z m442 -88 c23 -11 50 -17 61 -15 10 3 25 -2 33 -12 13
-16 12 -16 -9 -5 -44 23 -32 4 17 -30 28 -18 48 -35 46 -38 -3 -2 -29 13 -58
33 -30 21 -83 48 -118 61 -42 16 -55 24 -39 24 14 0 44 -8 67 -18z m-604
-1772 c14 -27 17 -51 13 -115 -4 -95 -18 -125 -83 -184 -56 -52 -62 -45 -44
49 5 31 13 114 17 186 3 71 8 134 11 138 8 13 67 -37 86 -74z m-807 -1280
c164 -39 593 -198 499 -185 -16 2 -67 20 -113 41 -49 22 -119 43 -170 52 -48
8 -102 21 -121 29 -116 48 -300 68 -411 44 -99 -22 -98 -22 -65 -3 87 48 235
57 381 22z"/>
<path d="M1754 3729 c-63 -18 -85 -53 -163 -249 -101 -258 -142 -521 -140
-894 2 -235 19 -140 48 269 18 240 48 370 118 510 20 39 53 111 75 160 51 117
91 195 101 195 4 0 7 5 7 10 0 12 -4 11 -46 -1z"/>
<path d="M1992 1968 c-7 -7 -12 -18 -12 -25 0 -7 -9 -13 -19 -13 -11 0 -21 -3
-23 -7 -1 -5 -19 -16 -40 -25 l-36 -17 -7 -87 c-15 -179 23 -399 150 -864 16
-59 -16 9 -36 75 -11 39 -29 82 -39 96 -10 14 -28 70 -40 125 -24 113 -80 491
-80 547 0 42 -25 53 -32 13 -13 -65 28 -348 84 -581 11 -49 23 -111 24 -137 4
-49 45 -161 70 -189 8 -9 52 -92 98 -185 46 -93 103 -193 127 -223 85 -104
262 -237 419 -316 94 -48 281 -109 385 -126 70 -12 -121 -15 -1455 -19 l-1535
-5 2005 0 c1103 0 1827 2 1610 5 -334 4 -388 7 -350 17 25 7 63 21 85 33 21
11 47 20 56 20 9 0 27 8 40 18 13 10 42 23 65 30 59 17 208 124 294 212 41 42
103 118 138 169 l62 92 0 390 0 391 -42 69 c-24 39 -54 90 -68 113 -55 94 -92
125 -192 163 -211 79 -385 52 -641 -101 -111 -66 -206 -160 -261 -258 -63
-113 -99 -335 -61 -384 13 -16 16 -17 25 -4 5 8 8 20 5 27 -2 6 -7 29 -10 50
-6 34 -5 36 8 20 8 -9 20 -43 26 -75 22 -112 83 -184 223 -267 32 -18 72 -37
90 -40 29 -7 31 -6 19 9 -7 9 -20 16 -27 16 -8 0 -22 7 -31 16 -10 8 -33 25
-52 37 -21 13 -35 31 -36 45 -2 25 17 29 35 7 7 -8 20 -15 29 -15 9 0 30 -9
46 -21 46 -31 134 -74 109 -52 -12 10 -30 24 -40 31 -17 11 -14 12 16 6 19 -3
55 -15 79 -25 51 -22 61 -23 61 -6 -1 13 -67 47 -93 47 -9 0 -18 4 -21 8 -3 4
-31 21 -62 37 -35 18 -64 40 -73 58 -9 16 -37 57 -63 91 -96 127 -103 240 -24
392 25 50 46 95 46 101 0 13 52 52 108 81 36 19 59 22 145 22 66 -1 116 -6
142 -16 22 -8 51 -19 65 -23 33 -11 154 -82 159 -93 1 -5 20 -20 41 -33 71
-45 143 -158 196 -310 22 -65 31 -278 15 -372 -14 -80 -49 -161 -94 -217 -18
-23 -50 -67 -72 -100 -64 -96 -166 -162 -303 -196 -107 -27 -288 -27 -396 0
-43 11 -96 20 -118 20 -41 0 -134 42 -234 106 -75 48 -196 165 -251 241 -65
91 -164 308 -217 473 -56 178 -138 579 -136 670 2 106 -11 192 -32 223 -22 30
-29 32 -46 15z m1729 -277 c58 -39 83 -60 78 -65 -6 -5 -148 77 -149 87 0 15
27 6 71 -22z m-22 -110 c13 -10 22 -23 20 -30 -3 -7 -16 0 -34 19 -32 33 -24
40 14 11z m162 -38 c6 -16 16 -36 21 -47 6 -12 6 -22 -1 -29 -7 -7 -16 4 -31
37 -23 54 -24 66 -10 66 6 0 15 -12 21 -27z m-78 -38 c51 -50 91 -104 82 -113
-4 -4 -12 2 -19 13 -6 10 -35 45 -65 77 -58 63 -57 80 2 23z m-1753 -640 c0
-5 -5 -3 -10 5 -5 8 -10 20 -10 25 0 6 5 3 10 -5 5 -8 10 -19 10 -25z"/>
<path d="M3117 734 c-11 -11 3 -24 25 -24 17 0 18 2 8 15 -13 16 -23 19 -33 9z"/>
</g>
</svg>
